<svg xmlns="http://www.w3.org/2000/svg" width="21.127" height="24.6" viewBox="0 0 21.127 24.6">
    <defs>
        <style>
            .cls-1{fill:#ababab}
        </style>
    </defs>
    <g id="Group_1986" data-name="Group 1986" transform="translate(-13 -8)">
        <g id="Group_1905" data-name="Group 1905" transform="translate(16.618 14.136)">
            <path id="Path_1227" d="M25.5 30.908l1.592-.2 2.257 1.071 2.72-1.158 1.5.405L35.6 29.2v6.164H25.5z" class="cls-1" data-name="Path 1227" transform="translate(-25.5 -29.2)"/>
        </g>
        <g id="Group_1906" data-name="Group 1906" transform="translate(16.618 22.239)">
            <path id="Rectangle_964" d="M0 0h1.36v3.473H0z" class="cls-1" data-name="Rectangle 964"/>
        </g>
        <g id="Group_1907" data-name="Group 1907" transform="translate(18.817 23.107)">
            <path id="Rectangle_965" d="M0 0h1.36v2.605H0z" class="cls-1" data-name="Rectangle 965"/>
        </g>
        <g id="Group_1908" data-name="Group 1908" transform="translate(20.988 22.528)">
            <path id="Rectangle_966" d="M0 0h1.36v3.184H0z" class="cls-1" data-name="Rectangle 966"/>
        </g>
        <g id="Group_1909" data-name="Group 1909" transform="translate(23.158 23.976)">
            <path id="Rectangle_967" d="M0 0h1.36v1.736H0z" class="cls-1" data-name="Rectangle 967"/>
        </g>
        <g id="Group_1910" data-name="Group 1910" transform="translate(25.358 21.95)">
            <path id="Rectangle_968" d="M0 0h1.36v3.762H0z" class="cls-1" data-name="Rectangle 968"/>
        </g>
        <path id="Path_1228" d="M31.233 11.473v1.447h1.447v18.233h-11l8.653-2.026h.029V8H13v21.127h12.705l-7.5 1.708V30h-1.443v2.6h17.365V11.473zM14.447 27.68V9.447h14.471V27.68z" class="cls-1" data-name="Path 1228"/>
    </g>
</svg>
