<svg xmlns="http://www.w3.org/2000/svg" width="28.362" height="20.236" viewBox="0 0 28.362 20.236">
    <defs>
        <style>
            .cls-1{fill:#ababab}
        </style>
    </defs>
    <g id="noun_dashboard_619310" transform="translate(-2.034 -10.619)">
        <g id="Group_1879" data-name="Group 1879" transform="translate(2.034 10.619)">
            <path id="Path_1155" d="M7.051 13.41a1.5 1.5 0 0 1 1.422-1.581h19.476a1.509 1.509 0 0 1 1.427 1.581v11.867h1.2V13.41a2.713 2.713 0 0 0-2.628-2.791H8.473A2.712 2.712 0 0 0 5.85 13.41v11.867h1.2z" class="cls-1" data-name="Path 1155" transform="translate(-4.033 -10.619)"/>
            <path id="Path_1156" d="M25.7 44.163H2.034v1.488a2.93 2.93 0 0 0 2.953 2.9h22.461a2.929 2.929 0 0 0 2.948-2.9v-1.488zm3.625 1.488a1.848 1.848 0 0 1-1.875 1.817H4.986a1.848 1.848 0 0 1-1.879-1.817v-.408h26.215v.408z" class="cls-1" data-name="Path 1156" transform="translate(-2.034 -28.317)"/>
            <g id="Group_1878" data-name="Group 1878" transform="translate(5.234 3.237)">
                <g id="Group_1877" data-name="Group 1877">
                    <path id="Path_1157" d="M14.578 31.089a1.366 1.366 0 0 1-1.364-1.364 8.851 8.851 0 0 1 1.864-5.458 1.328 1.328 0 0 1 1.06-.519 1.358 1.358 0 0 1 1.139.614 1.383 1.383 0 0 1-.06 1.594 6.171 6.171 0 0 0-1.274 3.767 1.367 1.367 0 0 1-1.365 1.366z" class="cls-1" data-name="Path 1157" transform="translate(-13.214 -20.775)"/>
                    <path id="Path_1158" d="M37.086 27.819a1.366 1.366 0 0 1-1.364-1.364 6.226 6.226 0 0 0-6.216-6.221 5.987 5.987 0 0 0-.739.045 1.337 1.337 0 0 1-1.289-.586 1.357 1.357 0 0 1 .964-2.124 8.946 8.946 0 0 1 10.009 8.886 1.366 1.366 0 0 1-1.365 1.364z" class="cls-1" data-name="Path 1158" transform="translate(-20.557 -17.505)"/>
                </g>
                <path id="Path_1159" d="M26.363 24.794a1.594 1.594 0 0 0-.25.025l-3.649-5.551a.669.669 0 1 0-1.118.732l3.648 5.55a1.62 1.62 0 1 0 1.369-.758z" class="cls-1" data-name="Path 1159" transform="translate(-17.416 -18.271)"/>
            </g>
        </g>
    </g>
</svg>
