<svg xmlns="http://www.w3.org/2000/svg" width="25.322" height="24.295" viewBox="0 0 25.322 24.295">
    <defs>
        <style>
            .cls-1,.cls-2{fill:#ababab}.cls-2{stroke:#afafaf;stroke-width:.2px}.cls-3{fill:#f4f4f4}
        </style>
    </defs>
    <g id="noun_application_2712936" transform="translate(-5 -14.39)">
        <g id="Group_1880" data-name="Group 1880" transform="translate(5 14.39)">
            <path id="Path_1165" d="M25.925 25.9h-9.413v9.414a.7.7 0 0 1-.7.7H8.219A3.219 3.219 0 0 1 5 32.8V17.609a3.219 3.219 0 0 1 3.219-3.219H23.39a3.219 3.219 0 0 1 3.219 3.219V25.2a.7.7 0 0 1-.684.7zM15.106 15.793H8.219A1.827 1.827 0 0 0 6.4 17.617V24.5h8.711zm0 10.108H6.4v6.879a1.827 1.827 0 0 0 1.827 1.82h6.879zm10.109-8.292a1.827 1.827 0 0 0-1.824-1.824h-6.879V24.5h8.7z" class="cls-1" data-name="Path 1165" transform="translate(-5 -14.39)"/>
        </g>
        <path id="Path_1167" d="M3.622 10.394a1.218 1.218 0 0 1-.453-.083 1.315 1.315 0 0 1-.809-1.2 1.173 1.173 0 0 0-.236-.745 1.185 1.185 0 0 0-.753-.215 1.327 1.327 0 0 1-1.221-.77 1.325 1.325 0 0 1 .274-1.419 1.173 1.173 0 0 0 .36-.694A1.179 1.179 0 0 0 .4 4.584a1.328 1.328 0 0 1-.32-1.41 1.323 1.323 0 0 1 1.2-.809 1.184 1.184 0 0 0 .747-.236 1.173 1.173 0 0 0 .213-.753A1.322 1.322 0 0 1 3.014.155a1.327 1.327 0 0 1 1.42.274 1.181 1.181 0 0 0 .69.36 1.158 1.158 0 0 0 .682-.382A1.334 1.334 0 0 1 7.22.087a1.326 1.326 0 0 1 .809 1.2 1.166 1.166 0 0 0 .237.747 1.173 1.173 0 0 0 .751.213 1.325 1.325 0 0 1 1.222.771 1.329 1.329 0 0 1-.272 1.42 1.155 1.155 0 0 0-.36.694 1.187 1.187 0 0 0 .381.682 1.284 1.284 0 0 1-.845 2.223h-.032a1.161 1.161 0 0 0-.745.236 1.186 1.186 0 0 0-.213.753 1.336 1.336 0 0 1-.773 1.222 1.322 1.322 0 0 1-1.418-.272 1.18 1.18 0 0 0-.692-.362 1.158 1.158 0 0 0-.682.381 1.3 1.3 0 0 1-.966.399zm2.756-.821z" class="cls-2" data-name="Path 1167" transform="translate(19.801 28.19)"/>
        <path id="Path_1289" d="M2 0a2 2 0 1 1-2 2 2 2 0 0 1 2-2z" class="cls-3" data-name="Path 1289" transform="translate(23 31.39)"/>
    </g>
</svg>
