<svg xmlns="http://www.w3.org/2000/svg" width="27.613" height="19.064" viewBox="0 0 27.613 19.064">
    <defs>
        <style>
            .cls-1{fill:#ababab}
        </style>
    </defs>
    <g id="noun_members_3021696" transform="translate(-7.633 -8.551)">
        <path id="Path_1162" d="M21.121 20.876c-.283-.05-.577-.394-.836-.965a5.984 5.984 0 0 0 1.931-2.072 3.191 3.191 0 0 0 1.351-1.879 2.785 2.785 0 0 0-.766-3.02 5.749 5.749 0 0 0-5.467-4.389 5.749 5.749 0 0 0-5.467 4.388 2.788 2.788 0 0 0-.767 3.02 3.2 3.2 0 0 0 1.351 1.879 5.966 5.966 0 0 0 1.933 2.072c-.259.57-.553.915-.837.965-2.062.376-5.912 2.777-5.912 6.027a.712.712 0 0 0 .713.713h17.97a.713.713 0 0 0 .713-.713c.001-3.251-3.847-5.65-5.91-6.026zM9.154 26.19c.528-2.013 3.149-3.639 4.647-3.91.93-.169 1.651-.994 2.144-2.452a.711.711 0 0 0-.361-.867 4.5 4.5 0 0 1-1.976-1.977.706.706 0 0 0-.339-.321 1.685 1.685 0 0 1-.8-1.091c-.206-.729-.012-1.381.293-1.511a.714.714 0 0 0 .416-.5 4.366 4.366 0 0 1 4.152-3.582 4.364 4.364 0 0 1 4.152 3.582.721.721 0 0 0 .416.5c.3.129.5.781.293 1.511a1.682 1.682 0 0 1-.8 1.091.706.706 0 0 0-.339.321 4.5 4.5 0 0 1-1.977 1.977.714.714 0 0 0-.361.867c.493 1.458 1.215 2.283 2.144 2.452 1.5.271 4.119 1.9 4.647 3.91z" class="cls-1" data-name="Path 1162"/>
        <path id="Path_1164" d="M25.794 18.373c-.261-.046-.533-.364-.771-.888a5.527 5.527 0 0 0 1.777-1.913 2.93 2.93 0 0 0 1.246-1.734 2.567 2.567 0 0 0-.707-2.785A5.3 5.3 0 0 0 22.3 7a5.03 5.03 0 0 0-3.276 1.228 6.546 6.546 0 0 1 1.1.821 3.674 3.674 0 0 1 2.176-.73 4.025 4.025 0 0 1 3.83 3.3.66.66 0 0 0 .384.462c.281.121.462.723.271 1.4a1.546 1.546 0 0 1-.736 1 .673.673 0 0 0-.313.3 4.143 4.143 0 0 1-1.822 1.821.658.658 0 0 0-.333.8c.455 1.347 1.121 2.108 1.977 2.262 1.382.252 3.8 1.751 4.286 3.607h-4.338a5.581 5.581 0 0 1 .44 1.315h4.641a.657.657 0 0 0 .658-.658c.002-2.992-3.545-5.206-5.451-5.555z" class="cls-1" data-name="Path 1164" transform="translate(4.002 2.652)"/>
    </g>
</svg>
